# xmcd
#
# Track frame offsets:
#	150
#	22520
#	49470
#	69062
#	93719
#	114899
#	138476
#	161089
#	193051
#
# Disc length: 3028 seconds
#
# Revision: 0
# Processed by: cddbd v1.5.2PL0 Copyright (c) Steve Scherf et al.
# Submitted via: EasyCDDAExtractor 16.0.8.2
#
DISCID=710bd209
DTITLE=엄인호 - Anthology
DYEAR=2015
DGENRE=Blues
TTITLE0=Tears Of My Love
TTITLE1=내 마음 속에 내리는 비는
TTITLE2=달빛 아래 춤을
TTITLE3=비오는 어느 저녁
TTITLE4=L.A Blues
TTITLE5=밤마다
TTITLE6=Angie
TTITLE7=비오는 날의 해후
TTITLE8=당신이 떠난 뛰에도
EXTD=
EXTT0=
EXTT1=
EXTT2=
EXTT3=
EXTT4=
EXTT5=
EXTT6=
EXTT7=
EXTT8=
PLAYORDER=
